<!DOCTYPE svg PUBLIC "-//W3C//DTD SVG 1.1//EN" "https://www.w3.org/Graphics/SVG/1.1/DTD/svg11.dtd"><svg xmlns="http://www.w3.org/2000/svg" id="sfn-svg" class="sfn-workflow-graph" width="285" height="380">  
<g transform="translate(12,19.625)"><g class="nodes"><g class="node-container" transform="translate(133.1171875,18.25)"><g class="node anchor"><circle class="shape" x="-15.875" y="-8.25" r="25.875"/><text class="label"><tspan xml:space="preserve" text-anchor="middle" alignment-baseline="central">Start</tspan></text></g></g><g class="node-container" transform="translate(133.1171875,325.875)"><g class="node anchor"><circle class="shape" x="-12.1875" y="-8.25" r="22.1875"/><text class="label"><tspan xml:space="preserve" text-anchor="middle" alignment-baseline="central">End</tspan></text></g></g><g class="node-container" transform="translate(133.1171875,79.75)"><g class="node state Task NotYetStarted"><rect class="shape" rx="5" ry="5" x="-57.65625" y="-18.25" width="115.3125" height="36.5"/><text class="label"><tspan xml:space="preserve" text-anchor="middle" alignment-baseline="central">Get JWT Token</tspan></text></g></g><g class="node-container" transform="translate(133.1171875,141.28125)"><g class="node state Task NotYetStarted"><rect class="shape" rx="5" ry="5" x="-78.53125" y="-18.28125" width="157.0625" height="36.5625"/><text class="label"><tspan xml:space="preserve" text-anchor="middle" alignment-baseline="central">Create Zoom Meeting</tspan></text></g></g><g class="node-container" transform="translate(133.1171875,202.8125)"><g class="node state Choice NotYetStarted"><rect class="shape" rx="5" ry="5" x="-79.15625" y="-18.25" width="158.3125" height="36.5"/><text class="label"><tspan xml:space="preserve" text-anchor="middle" alignment-baseline="central">Check Result of Zoom</tspan></text></g></g><g class="node-container" transform="translate(58.046875,264.34375)"><g class="node state Task NotYetStarted"><rect class="shape" rx="5" ry="5" x="-58.046875" y="-18.28125" width="116.09375" height="36.5625"/><text class="label"><tspan xml:space="preserve" text-anchor="middle" alignment-baseline="central">Notify meeting</tspan></text></g></g><g class="node-container" transform="translate(208.1875,264.34375)"><g class="node state Task NotYetStarted"><rect class="shape" rx="5" ry="5" x="-52.09375" y="-18.28125" width="104.1875" height="36.5625"/><text class="label"><tspan xml:space="preserve" text-anchor="middle" alignment-baseline="central">Notify failure</tspan></text></g></g></g><g class="edges"><g class="edge"><path class="path" marker-end="url(#arrowhead71)" d="M133.1171875,98L133.11718749999997,100.08333333333331C133.1171875,102.16666666666666,133.1171875,106.33333333333331,133.11718749999997,110.49999999999999C133.1171875,114.66666666666666,133.1171875,118.83333333333333,133.11718749999997,120.91666666666666L133.1171875,123" style="fill: none;"/><defs><marker id="arrowhead71" viewBox="0 0 10 10" refX="9" refY="5" markerUnits="strokeWidth" markerWidth="8" markerHeight="6" orient="auto"><path d="M 0 0 L 10 5 L 0 10 z"/></marker></defs></g><g class="edge"><path class="path" marker-end="url(#arrowhead72)" d="M133.1171875,44.125L133.11718749999997,44.93749999999999C133.1171875,45.75,133.1171875,47.375,133.11718749999997,50.27083333333333C133.1171875,53.166666666666664,133.1171875,57.33333333333333,133.11718749999997,59.416666666666664L133.1171875,61.5" style="fill: none;"/><defs><marker id="arrowhead72" viewBox="0 0 10 10" refX="9" refY="5" markerUnits="strokeWidth" markerWidth="8" markerHeight="6" orient="auto"><path d="M 0 0 L 10 5 L 0 10 z"/></marker></defs></g><g class="edge"><path class="path" marker-end="url(#arrowhead73)" d="M133.1171875,159.5625L133.11718749999997,161.64583333333334C133.1171875,163.72916666666666,133.1171875,167.89583333333331,133.11718749999997,172.06249999999997C133.1171875,176.22916666666666,133.1171875,180.39583333333331,133.11718749999997,182.47916666666666L133.1171875,184.5625" style="fill: none;"/><defs><marker id="arrowhead73" viewBox="0 0 10 10" refX="9" refY="5" markerUnits="strokeWidth" markerWidth="8" markerHeight="6" orient="auto"><path d="M 0 0 L 10 5 L 0 10 z"/></marker></defs></g><g class="edge"><path class="path" marker-end="url(#arrowhead74)" d="M88.56326219512195,221.0625L83.47719766260163,223.14583333333331C78.3911331300813,225.22916666666666,68.21900406504065,229.39583333333331,63.13293953252032,233.56249999999997C58.046875,237.72916666666663,58.046875,241.89583333333331,58.04687499999999,243.97916666666666L58.046875,246.0625" style="fill: none;"/><defs><marker id="arrowhead74" viewBox="0 0 10 10" refX="9" refY="5" markerUnits="strokeWidth" markerWidth="8" markerHeight="6" orient="auto"><path d="M 0 0 L 10 5 L 0 10 z"/></marker></defs></g><g class="edge"><path class="path" marker-end="url(#arrowhead75)" d="M177.67111280487805,221.0625L182.75717733739836,223.14583333333331C187.8432418699187,225.22916666666666,198.01537093495932,229.39583333333331,203.10143546747966,233.56249999999997C208.1875,237.72916666666663,208.1875,241.89583333333331,208.18749999999997,243.97916666666666L208.1875,246.0625" style="fill: none;"/><defs><marker id="arrowhead75" viewBox="0 0 10 10" refX="9" refY="5" markerUnits="strokeWidth" markerWidth="8" markerHeight="6" orient="auto"><path d="M 0 0 L 10 5 L 0 10 z"/></marker></defs></g><g class="edge"><path class="path" marker-end="url(#arrowhead76)" d="M58.046875,282.625L58.04687499999999,284.7083333333333C58.046875,286.79166666666663,58.046875,290.9583333333333,67.13662825309898,296.76497489896946C76.22638150619797,302.5716164646056,94.40588801239593,310.0182329292112,103.49564126549492,313.74154116151396L112.58539451859392,317.4648493938168" style="fill: none;"/><defs><marker id="arrowhead76" viewBox="0 0 10 10" refX="9" refY="5" markerUnits="strokeWidth" markerWidth="8" markerHeight="6" orient="auto"><path d="M 0 0 L 10 5 L 0 10 z"/></marker></defs></g><g class="edge"><path class="path" marker-end="url(#arrowhead77)" d="M208.1875,282.625L208.18749999999997,284.7083333333333C208.1875,286.79166666666663,208.1875,290.9583333333333,199.097746746901,296.76497489896946C190.00799349380202,302.5716164646056,171.82848698760404,310.0182329292112,162.73873373450505,313.74154116151396L153.64898048140608,317.4648493938168" style="fill: none;"/><defs><marker id="arrowhead77" viewBox="0 0 10 10" refX="9" refY="5" markerUnits="strokeWidth" markerWidth="8" markerHeight="6" orient="auto"><path d="M 0 0 L 10 5 L 0 10 z"/></marker></defs></g></g></g><style xmlns="http://www.w3.org/1999/xhtml">.node &gt; .shape {stroke: #555555;stroke-width: 0.6px;fill: #FFFFFF;} path {stroke: #555;background-color: #555;stroke-width: 1px;} .node.state.NotYetStarted &gt; .shape,.node.state.Container &gt; .shape {stroke-dasharray: 5 2;} .node.state.Failed &gt; .shape,rect.legend.Failed {fill: #DE322F;} .node.state.CaughtError &gt; .shape,rect.legend.CaughtError {fill: #FFA500;} .node.state.Succeeded &gt; .shape,rect.legend.Succeeded {fill: #2BD62E;} .node.state.InProgress &gt; .shape,rect.legend.InProgress {fill: #53c9ed;} .node.state.Cancelled &gt; .shape,rect.legend.Cancelled {fill: #dddddd;} .node.anchor &gt; .shape {fill: #FFDA75;} .node.state.hovered:not(.selected):not(.NotYetStarted) &gt; .shape,.node.selected &gt; .shape {stroke: #555555;stroke-width: 2px;} .node.state.Container.Failed &gt; .shape {fill: #EE9592;} .node.state.Container.CaughtError &gt; .shape {fill: #FFD27F;} .node.state.Container.Succeeded &gt; .shape {fill: #91EA9A;} .node.state.Container.InProgress &gt; .shape {fill :#A9E4F7;} .node.state.Container.Cancelled &gt; .shape {fill: #EEEEEE;} marker {fill: #555555;} .node.anchor,.node.state.NotYetStarted {cursor: default;} .node.state {cursor: pointer;} tspan .label {font-weight: normal;font-size: 12px;text-shadow: none;} </style></svg>